STARTFONT 2.1
COMMENT
COMMENT Converted from OpenType font "Q:\font stuff\winfont\Yadou.otf" by "otf2bdf 3.0".
COMMENT
FONT -FreeType-Yadou-Medium-R-Normal--36-360-72-72-P-323-ISO10646-1
SIZE 36 72 72
FONTBOUNDINGBOX 72 35 -2 -7
STARTPROPERTIES 19
FOUNDRY "FreeType"
FAMILY_NAME "Yadou"
WEIGHT_NAME "Medium"
SLANT "R"
SETWIDTH_NAME "Normal"
ADD_STYLE_NAME ""
PIXEL_SIZE 36
POINT_SIZE 360
RESOLUTION_X 72
RESOLUTION_Y 72
SPACING "P"
AVERAGE_WIDTH 323
CHARSET_REGISTRY "ISO10646"
CHARSET_ENCODING "1"
FONT_ASCENT 26
FONT_DESCENT 7
COPYRIGHT "-FreeType-Yadou-Medium-R-Normal--36-360-72-72-P-323-ISO10646-1"
_OTF_FONTFILE "Q:\font stuff\winfont\Yadou.otf"
_OTF_PSNAME "Yadou"
ENDPROPERTIES
CHARS 101
STARTCHAR 0020
ENCODING 32
SWIDTH 500 0
DWIDTH 18 0
BBX 0 0 0 0
BITMAP
ENDCHAR
STARTCHAR 0021
ENCODING 33
SWIDTH 361 0
DWIDTH 13 0
BBX 10 28 1 -1
BITMAP
FFC0
C0C0
C0C0
C0C0
C0C0
C0C0
C0C0
C0C0
C0C0
C0C0
C0C0
C0C0
C0C0
C0C0
C0C0
C0C0
C0C0
FFC0
FFC0
FFC0
0000
0000
7F80
C0C0
C0C0
FFC0
FFC0
7F80
ENDCHAR
STARTCHAR 0022
ENCODING 34
SWIDTH 694 0
DWIDTH 25 0
BBX 23 9 1 18
BITMAP
7F83FC
C0C606
C0C606
C0C606
E0C706
61C30E
7F83FC
3F81FC
3F01F8
ENDCHAR
STARTCHAR 0023
ENCODING 35
SWIDTH 1222 0
DWIDTH 44 0
BBX 40 22 2 2
BITMAP
007FE3FF00
0060630300
0060630300
0060630300
FFE07F03FF
C000000003
C000000003
FFE07F03FF
FFE07F03FF
FFE07F03FF
0060630300
FFE07F03FF
C000000003
C000000003
FFE07F03FF
FFE07F03FF
FFE07F03FF
0060630300
0060630300
007FE3FF00
007FE3FF00
007FE3FF00
ENDCHAR
STARTCHAR 0024
ENCODING 36
SWIDTH 1166 0
DWIDTH 42 0
BBX 38 29 2 -1
BITMAP
0003FF0000
0003030000
0003030000
0003030000
1FFF03FFC0
2000000030
403F03F008
C07F03FC08
C0FF03FC0C
C0C3030C0C
C0C3030FFC
C0C3030FFC
C063030FFC
E03F03FFFC
F000000040
7FFF03F830
3FFF03FC08
FFFF03FC0C
C0C3030C0C
C0C3030C0C
C06303180C
E01C00E01C
F80000007C
7FFF03FFF8
3FFF03FFF0
07FF03FF80
0003FF0000
0003FF0000
0003FF0000
ENDCHAR
STARTCHAR 0025
ENCODING 37
SWIDTH 1972 0
DWIDTH 71 0
BBX 68 28 2 -1
BITMAP
1FFFFF80007FF00000
2000006000C1E00000
403FE0100181C00000
C0FFF8180303800000
C0FFF8180607000000
C0E038180C0E000000
C0C01818181C000000
C0C01818103C000000
C06030182078000000
C01FC01840F0000000
F000007881E0000000
FFFFFFF903C0000000
7FFFFFF20780000000
3FFFFFE40F00000000
0FFFFB880E3FFFFF00
000000101CE00000C0
000000203880FFC020
000000407181FFF030
00000080E183FFF030
00000101E183003030
00000303C183003030
000006078183003030
00000C0F0183003030
0000181E0180FFC030
0000303C01C00000F0
00003FF800FFFFFFE0
00007FF0007FFFFFC0
0000FFE0003FFFFF00
ENDCHAR
STARTCHAR 0026
ENCODING 38
SWIDTH 722 0
DWIDTH 26 0
BBX 22 12 2 7
BITMAP
01FF00
018300
018300
FF83FC
C0000C
C0000C
FF83FC
FF83FC
FF83FC
01FF00
01FF00
01FF00
ENDCHAR
STARTCHAR 0027
ENCODING 39
SWIDTH 361 0
DWIDTH 13 0
BBX 10 9 1 18
BITMAP
7F80
C0C0
C0C0
C0C0
E0C0
61C0
7F80
3F80
3F00
ENDCHAR
STARTCHAR 0028
ENCODING 40
SWIDTH 638 0
DWIDTH 23 0
BBX 19 28 2 -1
BITMAP
0FFFE0
300060
403FE0
C0FFE0
C0FFE0
C0C000
C0C000
C0C000
C0C000
C0C000
C0C000
C0C000
C0C000
C0C000
C0C000
C0C000
C0C000
C0C000
C0C000
C0C000
C0C000
C0C000
C0C000
C07FE0
F00060
7FFFE0
7FFFE0
0FFFE0
ENDCHAR
STARTCHAR 0029
ENCODING 41
SWIDTH 638 0
DWIDTH 23 0
BBX 19 28 2 -1
BITMAP
FFFE00
C001C0
FFC040
FFF060
FFF060
003060
003060
003060
003060
003060
003060
003060
003060
003060
003060
003060
003060
003060
003060
003060
003060
003060
003060
FFC060
C000E0
FFFFC0
FFFF80
FFFE00
ENDCHAR
STARTCHAR 002A
ENCODING 42
SWIDTH 1166 0
DWIDTH 42 0
BBX 41 20 0 5
BITMAP
000008000000
000014000000
000023000000
000041800000
000180C00000
000300200000
03FC001FF000
FC0000001F80
3F0000003E00
0FC00000F800
03E00003F000
01F00003C000
006000030000
002000030000
00603E030000
0063FFF10000
007FFFFF0000
007FC1FF8000
0078000F8000
008000008000
ENDCHAR
STARTCHAR 002B
ENCODING 43
SWIDTH 722 0
DWIDTH 26 0
BBX 22 12 2 7
BITMAP
01FF00
018300
018300
FF83FC
C0000C
C0000C
FF83FC
FF83FC
FF83FC
01FF00
01FF00
01FF00
ENDCHAR
STARTCHAR 002C
ENCODING 44
SWIDTH 361 0
DWIDTH 13 0
BBX 10 9 1 -4
BITMAP
7F80
C0C0
C0C0
C0C0
E0C0
61C0
7F80
3F80
3F00
ENDCHAR
STARTCHAR 002D
ENCODING 45
SWIDTH 722 0
DWIDTH 26 0
BBX 22 6 2 10
BITMAP
FFFFFC
C0000C
C0000C
FFFFFC
FFFFFC
FFFFFC
ENDCHAR
STARTCHAR 002E
ENCODING 46
SWIDTH 361 0
DWIDTH 13 0
BBX 10 6 1 -1
BITMAP
7F80
C0C0
C0C0
FFC0
FFC0
7F80
ENDCHAR
STARTCHAR 002F
ENCODING 47
SWIDTH 916 0
DWIDTH 33 0
BBX 37 28 -2 -1
BITMAP
0000007FF8
000000C0F0
00000181E0
00000101C0
0000020380
0000040700
0000080E00
0000101C00
0000203800
0000407000
000080F000
000181E000
000303C000
0006078000
000C0F0000
00180E0000
00301C0000
0060380000
0040700000
0080E00000
0101C00000
0203800000
0407800000
080F000000
101E000000
3FFC000000
7FF8000000
FFF0000000
ENDCHAR
STARTCHAR 0030
ENCODING 48
SWIDTH 1166 0
DWIDTH 42 0
BBX 38 28 2 -1
BITMAP
0FFFFFFFC0
3000000030
403FFFF008
C0FFFFFC0C
C0FFFFFC0C
C0C0000C0C
C0C0000C0C
C0C0000C0C
C0C0000C0C
C0C0000C0C
C0C0000C0C
C0C0000C0C
C0C0000C0C
C0C0000C0C
C0C0000C0C
C0C0000C0C
C0C0000C0C
C0C0000C0C
C0C0000C0C
C0C0000C0C
C0C0000C0C
C0C0000C0C
C0C0000C0C
C07FFFF00C
F00000003C
7FFFFFFFF8
3FFFFFFFF0
0FFFFFFFC0
ENDCHAR
STARTCHAR 0031
ENCODING 49
SWIDTH 583 0
DWIDTH 21 0
BBX 19 28 0 -1
BITMAP
FFFE00
C00180
FF8040
FFE060
FFE060
006060
006060
006060
006060
006060
006060
006060
006060
006060
006060
006060
006060
006060
006060
006060
006060
006060
006060
006060
006060
007FE0
007FE0
007FE0
ENDCHAR
STARTCHAR 0032
ENCODING 50
SWIDTH 1166 0
DWIDTH 42 0
BBX 37 28 2 -1
BITMAP
0FFFFFFF80
3000000070
407FFFF010
C0FFFFFC18
C1FFFFFC18
C1C0001C18
FF80000C18
FF80000C18
FF80000C18
0000000C18
0000000C18
0000000818
1FFFFFF018
6000000078
C07FFFFFF0
C1FFFFFFE0
C1FFFFFF00
C180000000
C180000000
C180000FF8
C180000C18
C180000C18
C180000818
C07FFFF018
E000000038
7FFFFFFFF0
7FFFFFFFE0
0FFFFFFF80
ENDCHAR
STARTCHAR 0033
ENCODING 51
SWIDTH 1166 0
DWIDTH 42 0
BBX 38 28 2 -1
BITMAP
0FFFFFFFC0
3000000030
403FFFF008
C0FFFFFC0C
C0FFFFFC0C
C0E0001C0C
FFC0000C0C
FFC0000C0C
FFC0000C0C
0000000C0C
0000000C0C
000FFFF81C
000C0001FC
000C0007F8
000FFFF830
000FFFFC08
000FFFFC0C
0000000C0C
0000000C0C
0000000C0C
FFC0000C0C
C0C0000C0C
C0C0000C0C
C03FFFF00C
F00000001C
7FFFFFFFF8
3FFFFFFFF0
0FFFFFFFC0
ENDCHAR
STARTCHAR 0034
ENCODING 52
SWIDTH 1166 0
DWIDTH 42 0
BBX 38 28 2 -1
BITMAP
FFC0000FFC
C0C0000C0C
C0C0000C0C
C0C0000C0C
C0C0000C0C
C0C0000C0C
C0C0000C0C
C0C0000C0C
C0C0000C0C
C0C0000C0C
C0C0000C0C
C07FFFF01C
C0000001FC
F0000007F8
7FFFFFF830
3FFFFFFC08
07FFFFFC0C
0000000C0C
0000000C0C
0000000C0C
0000000C0C
0000000C0C
0000000C0C
0000000C0C
0000000C0C
0000000FFC
0000000FFC
0000000FFC
ENDCHAR
STARTCHAR 0035
ENCODING 53
SWIDTH 1166 0
DWIDTH 42 0
BBX 38 28 2 0
BITMAP
1FFFFFFFE0
6000000010
403FFFF008
C0FFFFFC0C
C0FFFFFC0C
C0E0001C0C
C0C0000FFC
C0C0000FFC
C0C0000FFC
C0C0000000
C0C0000000
C0E0000000
C03FFFFFE0
F000000038
7FFFFFF808
3FFFFFFC0C
07FFFFFC0C
0000000C0C
0000000C0C
0000000C0C
FFC0000C0C
C0C0000C0C
C0C000080C
C03FFFF00C
F00000001C
7FFFFFFFF8
7FFFFFFFF0
0FFFFFFFC0
ENDCHAR
STARTCHAR 0036
ENCODING 54
SWIDTH 1166 0
DWIDTH 42 0
BBX 38 28 2 -1
BITMAP
0FFFFFFFC0
3000000030
403FFFF008
C0FFFFFC0C
C0FFFFFC0C
C0E0001C0C
C0C0000FFC
C0C0000FFC
C0C0000FFC
C0C0000000
C0C0000000
C0C0000000
C0FFFFFFE0
C000000038
C0FFFFF008
C0FFFFFC0C
C0FFFFFC0C
C0C0000C0C
C0C0000C0C
C0C0000C0C
C0C0000C0C
C0C0000C0C
C0C000080C
C03FFFF00C
F00000001C
7FFFFFFFF8
3FFFFFFFF0
0FFFFFFFC0
ENDCHAR
STARTCHAR 0037
ENCODING 55
SWIDTH 1166 0
DWIDTH 42 0
BBX 38 28 2 -1
BITMAP
0FFFFFFFFC
300000000C
403FFFFC0C
C0FFFFF80C
C0FFFFF01C
C0E0002038
FFC0004070
FFC00080E0
FFC00181E0
00000303C0
0000060780
00000C0F00
0000181E00
0000301C00
0000603800
0000407000
000080E000
000101C000
0002038000
0004078000
00080F0000
00181E0000
00303C0000
0060380000
00C0700000
01FFE00000
03FFC00000
07FF800000
ENDCHAR
STARTCHAR 0038
ENCODING 56
SWIDTH 1166 0
DWIDTH 42 0
BBX 38 28 2 -1
BITMAP
0FFFFFFFC0
3000000030
403FFFF008
C0FFFFFC0C
C0FFFFFC0C
C0C0000C0C
C0C0000C0C
C0C0000C0C
C0C0000C0C
C0C0000C0C
C0C0000C0C
F07FFFF03C
FE000003F8
7F800005F0
607FFFF818
C0FFFFFC0C
C0FFFFFC0C
C0C0000C0C
C0C0000C0C
C0C0000C0C
C0C0000C0C
C0C0000C0C
C0C0000C0C
C07FFFF00C
F00000003C
7FFFFFFFF8
3FFFFFFFF0
0FFFFFFFC0
ENDCHAR
STARTCHAR 0039
ENCODING 57
SWIDTH 1166 0
DWIDTH 42 0
BBX 38 28 2 -1
BITMAP
0FFFFFFFC0
3000000030
403FFFF008
C0FFFFFC0C
C0FFFFFC0C
C0C0001C0C
C0C0000C0C
C0C0000C0C
C0C0000C0C
C0C0000C0C
C0C0000C0C
C03FFFFC0C
E00000000C
FFFFFFFC0C
7FFFFFFC0C
1FFFFFFC0C
0000000C0C
0000000C0C
0000000C0C
FFC0000C0C
C0C0000C0C
C0C0000C0C
C0C0000C0C
C03FFFF00C
F00000003C
7FFFFFFFF8
3FFFFFFFF0
0FFFFFFFC0
ENDCHAR
STARTCHAR 003A
ENCODING 58
SWIDTH 361 0
DWIDTH 13 0
BBX 10 17 1 -1
BITMAP
7F80
C0C0
C0C0
FFC0
FFC0
7F80
0000
0000
0000
0000
0000
7F80
C0C0
C0C0
FFC0
FFC0
7F80
ENDCHAR
STARTCHAR 003B
ENCODING 59
SWIDTH 361 0
DWIDTH 13 0
BBX 10 20 1 -4
BITMAP
7F80
C0C0
C0C0
FFC0
FFC0
7F80
0000
0000
0000
0000
0000
7F80
C0C0
C0C0
C0C0
E0C0
61C0
7F80
3F80
3F00
ENDCHAR
STARTCHAR 003C
ENCODING 60
SWIDTH 611 0
DWIDTH 22 0
BBX 16 11 2 7
BITMAP
003C
00CF
033F
0CFC
3BF0
FEC0
3FB0
0FEC
03FF
00FF
003C
ENDCHAR
STARTCHAR 003D
ENCODING 61
SWIDTH 722 0
DWIDTH 26 0
BBX 22 12 2 7
BITMAP
FFFFFC
C0000C
C0000C
FFFFFC
FFFFFC
FFFFFC
FFFFFC
C0000C
C0000C
FFFFFC
FFFFFC
FFFFFC
ENDCHAR
STARTCHAR 003E
ENCODING 62
SWIDTH 611 0
DWIDTH 22 0
BBX 16 11 4 7
BITMAP
3C00
FB00
7EC0
1FB0
07CC
033F
0CFC
13F0
7FC0
FF00
3C00
ENDCHAR
STARTCHAR 003F
ENCODING 63
SWIDTH 1166 0
DWIDTH 42 0
BBX 38 28 2 -1
BITMAP
0FFFFFFFC0
3000000030
403FFFF008
C0FFFFFC0C
C0FFFFFC0C
C0C0001C0C
FFC0000C0C
FFC0000C0C
FFC0000C0C
0000000C0C
0000000C0C
0003FFF80C
000600000C
000800001C
00180FFFF8
00181FFFF0
00181FFFC0
001FF80000
001FF80000
001FF80000
0000000000
0000000000
000FF00000
0018180000
0018180000
001FF80000
001FF80000
000FF00000
ENDCHAR
STARTCHAR 0040
ENCODING 64
SWIDTH 1277 0
DWIDTH 46 0
BBX 42 28 2 -1
BITMAP
0FFFFFFFFC00
300000000380
403FFFFF0080
C0FFFFFFC0C0
C0FFFFFFC0C0
C0C00000C0C0
C0CFFFFEC0C0
C0D80003C0C0
C0D80003C0C0
C0D81F83C0C0
C0D83F83C0C0
C0D83F83C0C0
C0D83083C0C0
C0D83083C0C0
C0D83083C0C0
C0D83083C0C0
C0D80F8380C0
C0D8000001C0
C0DFFFFFFFC0
C0DFFFFFFF80
C0CFFFFFFFC0
C0C00000C0C0
C0C0000080C0
C07FFFFF00C0
E000000003C0
7FFFFFFFFF80
7FFFFFFFFF00
0FFFFFFFFC00
ENDCHAR
STARTCHAR 0041
ENCODING 65
SWIDTH 1166 0
DWIDTH 42 0
BBX 38 28 2 -1
BITMAP
0FFFFFFFC0
3000000030
403FFFF008
C0FFFFFC0C
C0FFFFFC0C
C0C0000C0C
C0C0000C0C
C0C0000C0C
C0C0000C0C
C0C0000C0C
C0C0000C0C
C0FFFFFC0C
C00000000C
C00000000C
C0FFFFFC0C
C0FFFFFC0C
C0FFFFFC0C
C0C0000C0C
C0C0000C0C
C0C0000C0C
C0C0000C0C
C0C0000C0C
C0C0000C0C
C0C0000C0C
C0C0000C0C
FFC0000FFC
FFC0000FFC
FFC0000FFC
ENDCHAR
STARTCHAR 0042
ENCODING 66
SWIDTH 1166 0
DWIDTH 42 0
BBX 38 28 2 -1
BITMAP
FFFFFFFFC0
C000000030
C0FFFFF008
C0FFFFFC0C
C0FFFFFC0C
C0C0000C0C
C0C0000C0C
C0C0000C0C
C0C0000C0C
C0C0000C0C
C0C0000C0C
C0FFFFF03C
C0000001F8
C0000002F0
C0FFFFF818
C0FFFFFC0C
C0FFFFFC0C
C0C0000C0C
C0C0000C0C
C0C0000C0C
C0C0000C0C
C0C0000C0C
C0C0000C0C
C0FFFFF00C
C00000003C
FFFFFFFFF8
FFFFFFFFF0
FFFFFFFFC0
ENDCHAR
STARTCHAR 0043
ENCODING 67
SWIDTH 1166 0
DWIDTH 42 0
BBX 38 28 2 -1
BITMAP
0FFFFFFFC0
3000000030
403FFFF008
C0FFFFFC0C
C0FFFFFC0C
C0E0001C0C
C0C0000FFC
C0C0000FFC
C0C0000FFC
C0C0000000
C0C0000000
C0C0000000
C0C0000000
C0C0000000
C0C0000000
C0C0000000
C0C0000000
C0C0000000
C0C0000000
C0C0000FFC
C0C0000C0C
C0C0000C0C
C0C000080C
C07FFFF00C
F00000003C
7FFFFFFFF8
3FFFFFFFF0
0FFFFFFFC0
ENDCHAR
STARTCHAR 0044
ENCODING 68
SWIDTH 1166 0
DWIDTH 42 0
BBX 38 28 2 -1
BITMAP
FFFFFFFFC0
C000000030
C0FFFFF008
C0FFFFFC0C
C0FFFFFC0C
C0C0000C0C
C0C0000C0C
C0C0000C0C
C0C0000C0C
C0C0000C0C
C0C0000C0C
C0C0000C0C
C0C0000C0C
C0C0000C0C
C0C0000C0C
C0C0000C0C
C0C0000C0C
C0C0000C0C
C0C0000C0C
C0C0000C0C
C0C0000C0C
C0C0000C0C
C0C0001C0C
C0FFFFF00C
C00000003C
FFFFFFFFF8
FFFFFFFFF0
FFFFFFFFC0
ENDCHAR
STARTCHAR 0045
ENCODING 69
SWIDTH 1166 0
DWIDTH 42 0
BBX 38 28 2 0
BITMAP
1FFFFFFFE0
6000000010
403FFFF008
C0FFFFFC0C
C0FFFFFC0C
C0E0001C0C
C0C0000FFC
C0C0000FFC
C0C0000FFC
C0C0000000
C0C0000000
E070000000
FC0FFFC000
7F8000C000
207FFFC000
40FFFFC000
C0FFFFC000
C0C0000000
C0C0000000
C0C0000FFC
C0C0000C0C
C0C0000C0C
C0C000080C
C07FFFF00C
F00000003C
7FFFFFFFF8
7FFFFFFFF0
0FFFFFFFC0
ENDCHAR
STARTCHAR 0046
ENCODING 70
SWIDTH 1166 0
DWIDTH 42 0
BBX 38 28 2 -1
BITMAP
0FFFFFFFC0
3000000030
403FFFF808
C0FFFFFC0C
C0FFFFFC0C
C0E0001C0C
C0C0000FFC
C0C0000FFC
C0C0000FFC
C0C0000000
C0C0000000
E07FFFC000
FE0000C000
7F8000C000
207FFFC000
40FFFFC000
C0FFFFC000
C0C0000000
C0C0000000
C0C0000000
C0C0000000
C0C0000000
C0C0000000
C0C0000000
C0C0000000
FFC0000000
FFC0000000
FFC0000000
ENDCHAR
STARTCHAR 0047
ENCODING 71
SWIDTH 1166 0
DWIDTH 42 0
BBX 38 28 2 0
BITMAP
1FFFFFFFE0
6000000010
403FFFF008
C0FFFFFC0C
C0FFFFFC0C
C0E0001C0C
C0C0000FFC
C0C0000FFC
C0C0000FFC
C0C0000000
C0C0000000
C0C0000000
C0C7FFFFE0
C0C6000038
C0C7FFF808
C0C7FFFC0C
C0C7FFFC0C
C0C0000C0C
C0C0000C0C
C0C0000C0C
C0C0000C0C
C0C0000C0C
C0C000080C
C03FFFF00C
F00000001C
7FFFFFFFF8
3FFFFFFFF0
0FFFFFFFC0
ENDCHAR
STARTCHAR 0048
ENCODING 72
SWIDTH 1166 0
DWIDTH 42 0
BBX 38 28 2 -1
BITMAP
FFC0000FFC
C0C0000C0C
C0C0000C0C
C0C0000C0C
C0C0000C0C
C0C0000C0C
C0C0000C0C
C0C0000C0C
C0C0000C0C
C0C0000C0C
C0C0000C0C
C0FFFFFC0C
C00000000C
C00000000C
C0FFFFFC0C
C0FFFFFC0C
C0FFFFFC0C
C0C0000C0C
C0C0000C0C
C0C0000C0C
C0C0000C0C
C0C0000C0C
C0C0000C0C
C0C0000C0C
C0C0000C0C
FFC0000FFC
FFC0000FFC
FFC0000FFC
ENDCHAR
STARTCHAR 0049
ENCODING 73
SWIDTH 361 0
DWIDTH 13 0
BBX 10 28 2 -1
BITMAP
FFC0
C0C0
C0C0
C0C0
C0C0
C0C0
C0C0
C0C0
C0C0
C0C0
C0C0
C0C0
C0C0
C0C0
C0C0
C0C0
C0C0
C0C0
C0C0
C0C0
C0C0
C0C0
C0C0
C0C0
C0C0
FFC0
FFC0
FFC0
ENDCHAR
STARTCHAR 004A
ENCODING 74
SWIDTH 1166 0
DWIDTH 42 0
BBX 38 28 2 -1
BITMAP
0000000FFC
0000000C0C
0000000C0C
0000000C0C
0000000C0C
0000000C0C
0000000C0C
0000000C0C
0000000C0C
0000000C0C
0000000C0C
0000000C0C
0000000C0C
0000000C0C
0000000C0C
0000000C0C
0000000C0C
0000000C0C
0000000C0C
FFC0000C0C
C0C0000C0C
C0C0000C0C
C0C000080C
C03FFFF00C
F00000003C
7FFFFFFFF8
3FFFFFFFF0
0FFFFFFFC0
ENDCHAR
STARTCHAR 004B
ENCODING 75
SWIDTH 1166 0
DWIDTH 42 0
BBX 38 28 2 -1
BITMAP
FFC0000FFC
C0C0000C0C
C0C0000C0C
C0C0000C0C
C0C0000C0C
C0C0000C0C
C0C0000C0C
C0C0000C0C
C0C0000C0C
C0C0000C0C
C0C0000C0C
C0FFFFF01C
C0000000FC
C0000007F8
C0FFFFF818
C0FFFFFC0C
C0FFFFFC0C
C0C0000C0C
C0C0000C0C
C0C0000C0C
C0C0000C0C
C0C0000C0C
C0C0000C0C
C0C0000C0C
C0C0000C0C
FFC0000FFC
FFC0000FFC
FFC0000FFC
ENDCHAR
STARTCHAR 004C
ENCODING 76
SWIDTH 1166 0
DWIDTH 42 0
BBX 38 28 2 -1
BITMAP
FFC0000000
C0C0000000
C0C0000000
C0C0000000
C0C0000000
C0C0000000
C0C0000000
C0C0000000
C0C0000000
C0C0000000
C0C0000000
C0C0000000
C0C0000000
C0C0000000
C0C0000000
C0C0000000
C0C0000000
C0C0000000
C0C0000000
C0C0000FFC
C0C0000C0C
C0C0000C0C
C0C000080C
C03FFFF00C
F00000003C
7FFFFFFFF8
3FFFFFFFF0
0FFFFFFFC0
ENDCHAR
STARTCHAR 004D
ENCODING 77
SWIDTH 1750 0
DWIDTH 63 0
BBX 59 28 2 -1
BITMAP
FFE000000000FFE0
C030000000010060
C018000000030060
C00C000000060060
C006000000040060
C002000000080060
C081000000102060
C0C0800000206060
C0E0C0000040E060
C0F0600000C1E060
C0F030000181E060
C0F818000103E060
C0DC080002076060
C0CE0400040E6060
C0C70200081C6060
C0C78300183C6060
C0C3818030786060
C0C1C0C060706060
C0C0E04040E06060
C0C0702081C06060
C0C0381103806060
C0C03C0A07006060
C0C01E0E0F006060
C0C00E041E006060
C0C007001C006060
FFC003FFF8007FE0
FFC001FFF0007FE0
FFC001FFE0007FE0
ENDCHAR
STARTCHAR 004E
ENCODING 78
SWIDTH 1166 0
DWIDTH 42 0
BBX 38 28 2 -1
BITMAP
FFC0000FFC
C060000C0C
C010000C0C
C008000C0C
C004000C0C
C003000C0C
C081800C0C
C0C0C00C0C
C0E0600C0C
C0F0100C0C
C0F8080C0C
C0FC040C0C
C0CE020C0C
C0C7818C0C
C0C3C0CC0C
C0C1E06C0C
C0C0F03C0C
C0C0780C0C
C0C03C040C
C0C01E000C
C0C00F000C
C0C007800C
C0C001C00C
C0C000F00C
C0C000780C
FFC0003FFC
FFC0001FFC
FFC0000FFC
ENDCHAR
STARTCHAR 004F
ENCODING 79
SWIDTH 1166 0
DWIDTH 42 0
BBX 38 28 2 -1
BITMAP
0FFFFFFFC0
3000000030
403FFFF008
C0FFFFFC0C
C0FFFFFC0C
C0C0000C0C
C0C0000C0C
C0C0000C0C
C0C0000C0C
C0C0000C0C
C0C0000C0C
C0C0000C0C
C0C0000C0C
C0C0000C0C
C0C0000C0C
C0C0000C0C
C0C0000C0C
C0C0000C0C
C0C0000C0C
C0C0000C0C
C0C0000C0C
C0C0000C0C
C0C0000C0C
C07FFFF00C
F00000003C
7FFFFFFFF8
3FFFFFFFF0
0FFFFFFFC0
ENDCHAR
STARTCHAR 0050
ENCODING 80
SWIDTH 1166 0
DWIDTH 42 0
BBX 38 28 2 -1
BITMAP
0FFFFFFFC0
3000000030
403FFFF008
C0FFFFFC0C
C0FFFFFC0C
C0C0000C0C
C0C0000C0C
C0C0000C0C
C0C0000C0C
C0C0000C0C
C0C0000C0C
E07FFFF00C
FF0000000C
7E8000003C
207FFFFFF8
40FFFFFFF0
C0FFFFFF80
C0C0000000
C0C0000000
C0C0000000
C0C0000000
C0C0000000
C0C0000000
C0C0000000
C0C0000000
FFC0000000
FFC0000000
FFC0000000
ENDCHAR
STARTCHAR 0051
ENCODING 81
SWIDTH 1166 0
DWIDTH 42 0
BBX 38 33 2 -6
BITMAP
0FFFFFFFC0
3000000030
403FFFF008
C0FFFFFC0C
C0FFFFFC0C
C0C0000C0C
C0C0000C0C
C0C0000C0C
C0C0000C0C
C0C0000C0C
C0C0000C0C
C0C0000C0C
C0C0000C0C
C0C0000C0C
C0C0000C0C
C0C0000C0C
C0C0000C0C
C0C0000C0C
C0C0000C0C
C0C0000C0C
C0C0000C0C
C0C0000C0C
C0C0000C0C
C07FFFF00C
F00000003C
7FFF03FFF8
3FFF03FFF0
0FFF03FFC0
0003030000
0003030000
0003FF0000
0003FF0000
0003FF0000
ENDCHAR
STARTCHAR 0052
ENCODING 82
SWIDTH 1166 0
DWIDTH 42 0
BBX 38 28 2 -1
BITMAP
0FFFFFFFC0
3000000030
403FFFF008
C0FFFFFC0C
C0FFFFFC0C
C0C0000C0C
C0C0000C0C
C0C0000C0C
C0C0000C0C
C0C0000C0C
C0C0000C0C
C0FFFFF03C
C0000003FC
C0000005F8
C0FFFFF810
C0FFFFFC08
C0FFFFFC0C
C0C0000C0C
C0C0000C0C
C0C0000C0C
C0C0000C0C
C0C0000C0C
C0C0000C0C
C0C0000C0C
C0C0000C0C
FFC0000FFC
FFC0000FFC
FFC0000FFC
ENDCHAR
STARTCHAR 0053
ENCODING 83
SWIDTH 1166 0
DWIDTH 42 0
BBX 38 28 2 0
BITMAP
1FFFFFFFE0
6000000010
403FFFF008
C0FFFFFC0C
C0FFFFFC0C
C0E0001C0C
C0C0000FFC
C0C0000FFC
C0C0000FFC
C0C0000000
C0C0000000
C0E0000000
C03FFFFFE0
F000000038
7FFFFFF808
3FFFFFFC0C
07FFFFFC0C
0000000C0C
0000000C0C
0000000C0C
FFC0000C0C
C0C0000C0C
C0C000080C
C03FFFF00C
F00000001C
7FFFFFFFF8
7FFFFFFFF0
0FFFFFFFC0
ENDCHAR
STARTCHAR 0054
ENCODING 84
SWIDTH 1166 0
DWIDTH 42 0
BBX 38 28 2 -1
BITMAP
0FFFFFFFC0
3000000030
403F03F008
C0FF03FC0C
C0FF03FC0C
C0C3031C0C
FFC3030FFC
FFC3030FFC
FFC3030FFC
0003030000
0003030000
0003030000
0003030000
0003030000
0003030000
0003030000
0003030000
0003030000
0003030000
0003030000
0003030000
0003030000
0003030000
0003030000
0003030000
0003FF0000
0003FF0000
0003FF0000
ENDCHAR
STARTCHAR 0055
ENCODING 85
SWIDTH 1166 0
DWIDTH 42 0
BBX 38 28 2 -1
BITMAP
FFC0000FFC
C0C0000C0C
C0C0000C0C
C0C0000C0C
C0C0000C0C
C0C0000C0C
C0C0000C0C
C0C0000C0C
C0C0000C0C
C0C0000C0C
C0C0000C0C
C0C0000C0C
C0C0000C0C
C0C0000C0C
C0C0000C0C
C0C0000C0C
C0C0000C0C
C0C0000C0C
C0C0000C0C
C0C0000C0C
C0C0000C0C
C0C0000C0C
C0C0000C0C
C07FFFF00C
F00000003C
7FFFFFFFF8
7FFFFFFFF0
0FFFFFFFC0
ENDCHAR
STARTCHAR 0056
ENCODING 86
SWIDTH 1166 0
DWIDTH 42 0
BBX 38 28 2 -1
BITMAP
FFE0001FFC
E020003018
6030002038
7010002030
3818004070
3808004060
1C0400C0E0
0C060080C0
0E020181C0
0603010180
0701030380
0381820300
0380860700
01C0C40600
00C04C0E00
00E0680C00
0060381C00
0070301800
0038103800
0038107000
001C007000
001C00E000
000E00E000
000601C000
0007018000
0003FF8000
0003FF0000
0001FF0000
ENDCHAR
STARTCHAR 0057
ENCODING 87
SWIDTH 1916 0
DWIDTH 69 0
BBX 66 28 2 -1
BITMAP
FFC0000FFC0000FFC0
C0C0000C0C0000C0C0
C0C0000C0C0000C0C0
C0C0000C0C0000C0C0
C0C0000C0C0000C0C0
C0C0000C0C0000C0C0
C0C0000C0C0000C0C0
C0C0000C0C0000C0C0
C0C0000C0C0000C0C0
C0C0000C0C0000C0C0
C0C0000C0C0000C0C0
C0C0000C0C0000C0C0
C0C0000C0C0000C0C0
C0C0000C0C0000C0C0
C0C0000C0C0000C0C0
C0C0000C0C0000C0C0
C0C0000C0C0000C0C0
C0C0000C0C0000C0C0
C0C0000C0C0000C0C0
C0C0000C0C0000C0C0
C0C0000C0C0000C0C0
C0C0000C0C0000C0C0
C0C0000C0C0000C0C0
C07FFFF087FFFF00C0
F0000003F0000003C0
7FFFFFFFFFFFFFFF80
7FFFFFFFFFFFFFFF00
0FFFFFFC0FFFFFFC00
ENDCHAR
STARTCHAR 0058
ENCODING 88
SWIDTH 1166 0
DWIDTH 42 0
BBX 38 28 2 -1
BITMAP
FFC0000FFC
C0C0000C0C
C0C0000C0C
C0C0000C0C
C0C0000C0C
C0C0000C0C
C0C0000C0C
C0C0000C0C
C0C0000C0C
C0C0000C0C
C0C0000C0C
F07FFFF01C
FE000000FC
7F000003F8
307FFFF830
40FFFFFC08
C0FFFFFC0C
C0C0000C0C
C0C0000C0C
C0C0000C0C
C0C0000C0C
C0C0000C0C
C0C0000C0C
C0C0000C0C
C0C0000C0C
FFC0000FFC
FFC0000FFC
FFC0000FFC
ENDCHAR
STARTCHAR 0059
ENCODING 89
SWIDTH 1166 0
DWIDTH 42 0
BBX 38 28 2 -1
BITMAP
FFC0000FFC
C0C0000C0C
C0C0000C0C
C0C0000C0C
C0C0000C0C
C0C0000C0C
C0C0000C0C
C0C0000C0C
C0C0000C0C
C0C0000C0C
C0C0000C0C
C07FFFF00C
E00000001C
FFFF03FFF8
7FFF03FFF8
1FFF03FFE0
0003030000
0003030000
0003030000
0003030000
0003030000
0003030000
0003030000
0003030000
0003030000
0003FF0000
0003FF0000
0003FF0000
ENDCHAR
STARTCHAR 005A
ENCODING 90
SWIDTH 1166 0
DWIDTH 42 0
BBX 38 28 2 -1
BITMAP
0FFFFFFFFC
300000000C
403FFFFC0C
C0FFFFF80C
C0FFFFE01C
C0C000C07C
FFC00100F8
FFC00603F0
FFC00807C0
0000300F80
0000603E00
0001807C00
000301F000
000403E000
001807C000
00201F0000
00C03E0000
0180F80000
0601F00000
0C03C00FFC
100F800C0C
601E000C0C
C07C00080C
C0FFFFF00C
C00000003C
FFFFFFFFF8
FFFFFFFFF0
FFFFFFFFC0
ENDCHAR
STARTCHAR 005B
ENCODING 91
SWIDTH 638 0
DWIDTH 23 0
BBX 19 28 2 -1
BITMAP
0FFFE0
300060
403FE0
C0FFE0
C0FFE0
C0C000
C0C000
C0C000
C0C000
C0C000
C0C000
C0C000
C0C000
C0C000
C0C000
C0C000
C0C000
C0C000
C0C000
C0C000
C0C000
C0C000
C0C000
C07FE0
F00060
7FFFE0
7FFFE0
0FFFE0
ENDCHAR
STARTCHAR 005C
ENCODING 92
SWIDTH 916 0
DWIDTH 33 0
BBX 37 28 -2 -1
BITMAP
FFF0000000
7818000000
3C0C000000
1E06000000
0F03000000
0781000000
0380800000
01C0400000
00E0200000
0070100000
0038080000
003C040000
001E020000
000F030000
0007818000
0003C0C000
0001E06000
0000F03000
0000701800
0000380C00
00001C0400
00000E0200
0000070100
0000038080
000003C040
000001FFE0
000000FFF0
0000007FF8
ENDCHAR
STARTCHAR 005D
ENCODING 93
SWIDTH 638 0
DWIDTH 23 0
BBX 19 28 2 -1
BITMAP
FFFE00
C001C0
FFC040
FFF060
FFF060
003060
003060
003060
003060
003060
003060
003060
003060
003060
003060
003060
003060
003060
003060
003060
003060
003060
003060
FFC060
C000E0
FFFFC0
FFFF80
FFFE00
ENDCHAR
STARTCHAR 005E
ENCODING 94
SWIDTH 1805 0
DWIDTH 65 0
BBX 0 0 0 0
BITMAP
ENDCHAR
STARTCHAR 005F
ENCODING 95
SWIDTH 1805 0
DWIDTH 65 0
BBX 62 4 2 -7
BITMAP
FFFFFFFFFFFFFFFC
FFFFFFFFFFFFFFFC
FFFFFFFFFFFFFFFC
FFFFFFFFFFFFFFFC
ENDCHAR
STARTCHAR 0060
ENCODING 96
SWIDTH 1805 0
DWIDTH 65 0
BBX 0 0 0 0
BITMAP
ENDCHAR
STARTCHAR 0061
ENCODING 97
SWIDTH 1166 0
DWIDTH 42 0
BBX 38 28 2 -1
BITMAP
0FFFFFFFC0
3000000030
403FFFF008
C0FFFFFC0C
C0FFFFFC0C
C0E0001C0C
FFC0000C0C
FFC0000C0C
FFC0000C0C
0000000C0C
0000000C0C
0000000C0C
1FFFFFFC0C
600000000C
C03FFFFC0C
C0FFFFFC0C
C0FFFFFC0C
C0C0000C0C
C0C0000C0C
C0C0000C0C
C0C0000C0C
C0C0000C0C
C0C0000C0C
C07FFFF00C
F00000003C
7FFFFFFFF8
7FFFFFFFF0
0FFFFFFFC0
ENDCHAR
STARTCHAR 0062
ENCODING 98
SWIDTH 1166 0
DWIDTH 42 0
BBX 38 28 2 -1
BITMAP
FFC0000000
C0C0000000
C0C0000000
C0C0000000
C0C0000000
C0C0000000
C0C0000000
C0C0000000
C0C0000000
C0C0000000
C0C0000000
E07FFFFFC0
FE00000030
7F80000008
207FFFF80C
40FFFFFC0C
C0FFFFFC0C
C0C0000C0C
C0C0000C0C
C0C0000C0C
C0C0000C0C
C0C0000C0C
C0C0000C0C
C07FFFF00C
F00000003C
7FFFFFFFF8
7FFFFFFFF0
0FFFFFFFC0
ENDCHAR
STARTCHAR 0063
ENCODING 99
SWIDTH 1166 0
DWIDTH 42 0
BBX 38 28 2 -1
BITMAP
0FFFFFFFC0
3000000030
403FFFF008
C0FFFFFC0C
C0FFFFFC0C
C0E0001C0C
C0C0000FFC
C0C0000FFC
C0C0000FFC
C0C0000000
C0C0000000
C0C0000000
C0C0000000
C0C0000000
C0C0000000
C0C0000000
C0C0000000
C0C0000000
C0C0000000
C0C0000FFC
C0C0000C0C
C0C0000C0C
C0C000080C
C07FFFF00C
F00000003C
7FFFFFFFF8
3FFFFFFFF0
0FFFFFFFC0
ENDCHAR
STARTCHAR 0064
ENCODING 100
SWIDTH 1166 0
DWIDTH 42 0
BBX 38 28 2 -1
BITMAP
0000000FFC
0000000C0C
0000000C0C
0000000C0C
0000000C0C
0000000C0C
0000000C0C
0000000C0C
0000000C0C
0000000C0C
0000000C0C
0FFFFFF01C
30000001FC
40000007F8
C07FFFF830
C0FFFFFC08
C0FFFFFC0C
C0C0000C0C
C0C0000C0C
C0C0000C0C
C0C0000C0C
C0C0000C0C
C0C0000C0C
C07FFFF00C
E00000003C
7FFFFFFFF8
3FFFFFFFF0
0FFFFFFFC0
ENDCHAR
STARTCHAR 0065
ENCODING 101
SWIDTH 1166 0
DWIDTH 42 0
BBX 38 28 2 -1
BITMAP
0FFFFFFFC0
3000000030
403FFFF008
C0FFFFFC0C
C0FFFFFC0C
C0C0001C0C
C0C0000C0C
C0C0000C0C
C0C0000C0C
C0C0000C0C
C0C0000C0C
C0FFFFF00C
C00000001C
C0FFFFFFF8
C0FFFFFFF8
C0FFFFFFC0
C0C0000000
C0C0000000
C0C0000000
C0C0000FFC
C0C0000C0C
C0C0000C0C
C0C000080C
C07FFFF00C
F00000003C
7FFFFFFFF8
3FFFFFFFF0
0FFFFFFFC0
ENDCHAR
STARTCHAR 0066
ENCODING 102
SWIDTH 1166 0
DWIDTH 42 0
BBX 38 28 2 -1
BITMAP
0FFFFFFFC0
3000000030
403FFFF808
C0FFFFFC0C
C0FFFFFC0C
C0E0001C0C
C0C0000FFC
C0C0000FFC
C0C0000FFC
C0C0000000
C0C0000000
E07FFFC000
FE0000C000
7F8000C000
207FFFC000
40FFFFC000
C0FFFFC000
C0C0000000
C0C0000000
C0C0000000
C0C0000000
C0C0000000
C0C0000000
C0C0000000
C0C0000000
FFC0000000
FFC0000000
FFC0000000
ENDCHAR
STARTCHAR 0067
ENCODING 103
SWIDTH 1166 0
DWIDTH 42 0
BBX 38 28 2 0
BITMAP
1FFFFFFFE0
6000000010
403FFFF008
C0FFFFFC0C
C0FFFFFC0C
C0E0001C0C
C0C0000FFC
C0C0000FFC
C0C0000FFC
C0C0000000
C0C0000000
C0C0000000
C0C7FFFFE0
C0C6000038
C0C7FFF808
C0C7FFFC0C
C0C7FFFC0C
C0C0000C0C
C0C0000C0C
C0C0000C0C
C0C0000C0C
C0C0000C0C
C0C000080C
C03FFFF00C
F00000001C
7FFFFFFFF8
3FFFFFFFF0
0FFFFFFFC0
ENDCHAR
STARTCHAR 0068
ENCODING 104
SWIDTH 1166 0
DWIDTH 42 0
BBX 38 28 2 -1
BITMAP
FFC0000000
C0C0000000
C0C0000000
C0C0000000
C0C0000000
C0C0000000
C0C0000000
C0C0000000
C0C0000000
C0C0000000
C0C0000000
F07FFFFF80
FF00000070
7E80000008
207FFFF80C
40FFFFFC0C
C0FFFFFC0C
C0C0000C0C
C0C0000C0C
C0C0000C0C
C0C0000C0C
C0C0000C0C
C0C0000C0C
C0C0000C0C
C0C0000C0C
FFC0000FFC
FFC0000FFC
FFC0000FFC
ENDCHAR
STARTCHAR 0069
ENCODING 105
SWIDTH 361 0
DWIDTH 13 0
BBX 10 28 2 -1
BITMAP
7F80
C0C0
C0C0
FFC0
FFC0
7F80
0000
0000
FFC0
C0C0
C0C0
C0C0
C0C0
C0C0
C0C0
C0C0
C0C0
C0C0
C0C0
C0C0
C0C0
C0C0
C0C0
C0C0
C0C0
FFC0
FFC0
FFC0
ENDCHAR
STARTCHAR 006A
ENCODING 106
SWIDTH 1166 0
DWIDTH 42 0
BBX 38 28 2 -1
BITMAP
00000007F8
0000000C0C
0000000C0C
0000000FFC
0000000FFC
00000007F8
0000000000
0000000000
0000000FFC
0000000C0C
0000000C0C
0000000C0C
0000000C0C
0000000C0C
0000000C0C
0000000C0C
0000000C0C
0000000C0C
0000000C0C
FFC0000C0C
C0C0000C0C
C0C0000C0C
C0C000080C
C03FFFF00C
F00000003C
7FFFFFFFF8
3FFFFFFFF0
0FFFFFFFC0
ENDCHAR
STARTCHAR 006B
ENCODING 107
SWIDTH 1166 0
DWIDTH 42 0
BBX 38 28 2 -1
BITMAP
FFC0000FFC
C0C0000C0C
C0C0000C0C
C0C0000C0C
C0C0000C0C
C0C0000C0C
C0C0000C0C
C0C0000C0C
C0C0000C0C
C0C0000C0C
C0C0000C0C
C0FFFFF01C
C0000000FC
C0000007F8
C0FFFFF818
C0FFFFFC0C
C0FFFFFC0C
C0C0000C0C
C0C0000C0C
C0C0000C0C
C0C0000C0C
C0C0000C0C
C0C0000C0C
C0C0000C0C
C0C0000C0C
FFC0000FFC
FFC0000FFC
FFC0000FFC
ENDCHAR
STARTCHAR 006C
ENCODING 108
SWIDTH 1166 0
DWIDTH 42 0
BBX 38 28 2 -1
BITMAP
FFC0000000
C0C0000000
C0C0000000
C0C0000000
C0C0000000
C0C0000000
C0C0000000
C0C0000000
C0C0000000
C0C0000000
C0C0000000
C0C0000000
C0C0000000
C0C0000000
C0C0000000
C0C0000000
C0C0000000
C0C0000000
C0C0000000
C0C0000FFC
C0C0000C0C
C0C0000C0C
C0C000080C
C03FFFF00C
F00000003C
7FFFFFFFF8
3FFFFFFFF0
0FFFFFFFC0
ENDCHAR
STARTCHAR 006D
ENCODING 109
SWIDTH 1944 0
DWIDTH 70 0
BBX 66 28 2 -1
BITMAP
0FFFFFF80FFFFFFC00
300000073000000300
403FFFF0C3FFFF0080
C0FFFFFC0FFFFFC0C0
C0FFFFFC0FFFFFC0C0
C0C0000C0C0000C0C0
C0C0000C0C0000C0C0
C0C0000C0C0000C0C0
C0C0000C0C0000C0C0
C0C0000C0C0000C0C0
C0C0000C0C0000C0C0
C0C0000C0C0000C0C0
C0C0000C0C0000C0C0
C0C0000C0C0000C0C0
C0C0000C0C0000C0C0
C0C0000C0C0000C0C0
C0C0000C0C0000C0C0
C0C0000C0C0000C0C0
C0C0000C0C0000C0C0
C0C0000C0C0000C0C0
C0C0000C0C0000C0C0
C0C0000C0C0000C0C0
C0C0000C0C0000C0C0
C0C0000C0C0000C0C0
C0C0000C0C0000C0C0
FFC0000FFC0000FFC0
FFC0000FFC0000FFC0
FFC0000FFC0000FFC0
ENDCHAR
STARTCHAR 006E
ENCODING 110
SWIDTH 1166 0
DWIDTH 42 0
BBX 38 28 2 -1
BITMAP
0FFFFFFFC0
3000000030
403FFFF008
C0FFFFFC0C
C0FFFFFC0C
C0C0000C0C
C0C0000C0C
C0C0000C0C
C0C0000C0C
C0C0000C0C
C0C0000C0C
C0C0000C0C
C0C0000C0C
C0C0000C0C
C0C0000C0C
C0C0000C0C
C0C0000C0C
C0C0000C0C
C0C0000C0C
C0C0000C0C
C0C0000C0C
C0C0000C0C
C0C0000C0C
C0C0000C0C
C0C0000C0C
FFC0000FFC
FFC0000FFC
FFC0000FFC
ENDCHAR
STARTCHAR 006F
ENCODING 111
SWIDTH 1166 0
DWIDTH 42 0
BBX 38 28 2 -1
BITMAP
0FFFFFFFC0
3000000030
403FFFF008
C0FFFFFC0C
C0FFFFFC0C
C0C0000C0C
C0C0000C0C
C0C0000C0C
C0C0000C0C
C0C0000C0C
C0C0000C0C
C0C0000C0C
C0C0000C0C
C0C0000C0C
C0C0000C0C
C0C0000C0C
C0C0000C0C
C0C0000C0C
C0C0000C0C
C0C0000C0C
C0C0000C0C
C0C0000C0C
C0C0000C0C
C07FFFF00C
F00000003C
7FFFFFFFF8
3FFFFFFFF0
0FFFFFFFC0
ENDCHAR
STARTCHAR 0070
ENCODING 112
SWIDTH 1166 0
DWIDTH 42 0
BBX 38 28 2 -1
BITMAP
0FFFFFFFC0
3000000030
403FFFF008
C0FFFFFC0C
C0FFFFFC0C
C0C0000C0C
C0C0000C0C
C0C0000C0C
C0C0000C0C
C0C0000C0C
C0C0000C0C
E07FFFF00C
FF0000000C
7E8000003C
207FFFFFF8
40FFFFFFF0
C0FFFFFF80
C0C0000000
C0C0000000
C0C0000000
C0C0000000
C0C0000000
C0C0000000
C0C0000000
C0C0000000
FFC0000000
FFC0000000
FFC0000000
ENDCHAR
STARTCHAR 0071
ENCODING 113
SWIDTH 1166 0
DWIDTH 42 0
BBX 38 28 2 -1
BITMAP
0FFFFFFFC0
3000000030
403FFFF008
C0FFFFFC0C
C0FFFFFC0C
C0C0000C0C
C0C0000C0C
C0C0000C0C
C0C0000C0C
C0C0000C0C
C0C0000C0C
C07FFFF01C
C0000003FC
F0000005F8
7FFFFFF830
3FFFFFFC08
07FFFFFC0C
0000000C0C
0000000C0C
0000000C0C
0000000C0C
0000000C0C
0000000C0C
0000000C0C
0000000C0C
0000000FFC
0000000FFC
0000000FFC
ENDCHAR
STARTCHAR 0072
ENCODING 114
SWIDTH 1166 0
DWIDTH 42 0
BBX 38 28 2 -1
BITMAP
0FFFFFFFC0
3000000030
403FFFF008
C0FFFFFC0C
C0FFFFFC0C
C0E0001C0C
C0C0000FFC
C0C0000FFC
C0C0000FFC
C0C0000000
C0C0000000
C0C0000000
C0C0000000
C0C0000000
C0C0000000
C0C0000000
C0C0000000
C0C0000000
C0C0000000
C0C0000000
C0C0000000
C0C0000000
C0C0000000
C0C0000000
C0C0000000
FFC0000000
FFC0000000
FFC0000000
ENDCHAR
STARTCHAR 0073
ENCODING 115
SWIDTH 1166 0
DWIDTH 42 0
BBX 38 28 2 0
BITMAP
1FFFFFFFE0
6000000010
403FFFF008
C0FFFFFC0C
C0FFFFFC0C
C0E0001C0C
C0C0000FFC
C0C0000FFC
C0C0000FFC
C0C0000000
C0C0000000
C0E0000000
C03FFFFFE0
F000000038
7FFFFFF808
3FFFFFFC0C
07FFFFFC0C
0000000C0C
0000000C0C
0000000C0C
FFC0000C0C
C0C0000C0C
C0C000080C
C03FFFF00C
F00000001C
7FFFFFFFF8
7FFFFFFFF0
0FFFFFFFC0
ENDCHAR
STARTCHAR 0074
ENCODING 116
SWIDTH 1166 0
DWIDTH 42 0
BBX 38 28 2 -1
BITMAP
FFC0000000
C0C0000000
C0C0000000
C0C0000000
C0C0000000
C0C0000000
C0C0000000
C0C0000000
C0C0000000
C0C0000000
C0C0000000
E07FFFC000
FF0000C000
7E8000C000
207FFFC000
40FFFFC000
C0FFFFC000
C0C0000000
C0C0000000
C0C0000FFC
C0C0000C0C
C0C0000C0C
C0C000080C
C07FFFF00C
F00000003C
7FFFFFFFF8
7FFFFFFFF0
0FFFFFFFC0
ENDCHAR
STARTCHAR 0075
ENCODING 117
SWIDTH 1166 0
DWIDTH 42 0
BBX 38 28 2 -1
BITMAP
FFC0000FFC
C0C0000C0C
C0C0000C0C
C0C0000C0C
C0C0000C0C
C0C0000C0C
C0C0000C0C
C0C0000C0C
C0C0000C0C
C0C0000C0C
C0C0000C0C
C0C0000C0C
C0C0000C0C
C0C0000C0C
C0C0000C0C
C0C0000C0C
C0C0000C0C
C0C0000C0C
C0C0000C0C
C0C0000C0C
C0C0000C0C
C0C0000C0C
C0C0000C0C
C07FFFF00C
F00000003C
7FFFFFFFF8
7FFFFFFFF0
0FFFFFFFC0
ENDCHAR
STARTCHAR 0076
ENCODING 118
SWIDTH 1166 0
DWIDTH 42 0
BBX 38 28 2 -1
BITMAP
FFE0001FFC
E020003018
6030002038
7010002030
3818004070
3808004060
1C0400C0E0
0C060080C0
0E020181C0
0603010180
0701030380
0381820300
0380860700
01C0C40600
00C04C0E00
00E0680C00
0060381C00
0070301800
0038103800
0038107000
001C007000
001C00E000
000E00E000
000601C000
0007018000
0003FF8000
0003FF0000
0001FF0000
ENDCHAR
STARTCHAR 0077
ENCODING 119
SWIDTH 1916 0
DWIDTH 69 0
BBX 66 28 2 -1
BITMAP
FFC0000FFC0000FFC0
C0C0000C0C0000C0C0
C0C0000C0C0000C0C0
C0C0000C0C0000C0C0
C0C0000C0C0000C0C0
C0C0000C0C0000C0C0
C0C0000C0C0000C0C0
C0C0000C0C0000C0C0
C0C0000C0C0000C0C0
C0C0000C0C0000C0C0
C0C0000C0C0000C0C0
C0C0000C0C0000C0C0
C0C0000C0C0000C0C0
C0C0000C0C0000C0C0
C0C0000C0C0000C0C0
C0C0000C0C0000C0C0
C0C0000C0C0000C0C0
C0C0000C0C0000C0C0
C0C0000C0C0000C0C0
C0C0000C0C0000C0C0
C0C0000C0C0000C0C0
C0C0000C0C0000C0C0
C0C0000C0C0000C0C0
C07FFFF087FFFF00C0
F0000003F0000003C0
7FFFFFFFFFFFFFFF80
7FFFFFFFFFFFFFFF00
0FFFFFFC0FFFFFFC00
ENDCHAR
STARTCHAR 0078
ENCODING 120
SWIDTH 1166 0
DWIDTH 42 0
BBX 38 28 2 -1
BITMAP
FFC0000FFC
C0C0000C0C
C0C0000C0C
C0C0000C0C
C0C0000C0C
C0C0000C0C
C0C0000C0C
C0C0000C0C
C0C0000C0C
C0C0000C0C
C0C0000C0C
F07FFFF01C
FE000000FC
7F000003F8
307FFFF830
40FFFFFC08
C0FFFFFC0C
C0C0000C0C
C0C0000C0C
C0C0000C0C
C0C0000C0C
C0C0000C0C
C0C0000C0C
C0C0000C0C
C0C0000C0C
FFC0000FFC
FFC0000FFC
FFC0000FFC
ENDCHAR
STARTCHAR 0079
ENCODING 121
SWIDTH 1166 0
DWIDTH 42 0
BBX 38 28 2 -1
BITMAP
FFC0000FFC
C0C0000C0C
C0C0000C0C
C0C0000C0C
C0C0000C0C
C0C0000C0C
C0C0000C0C
C0C0000C0C
C0C0000C0C
C0C0000C0C
C0C0000C0C
C07FFFF03C
C0000001FC
F0000007F8
7FFFFFF830
3FFFFFFC08
07FFFFFC0C
0000000C0C
0000000C0C
FFC0000C0C
C0C0000C0C
C0C0000C0C
C0C0000C0C
C03FFFF00C
F00000001C
7FFFFFFFF8
3FFFFFFFF0
0FFFFFFFC0
ENDCHAR
STARTCHAR 007A
ENCODING 122
SWIDTH 1166 0
DWIDTH 42 0
BBX 38 28 2 -1
BITMAP
0FFFFFFFFC
300000000C
403FFFFC0C
C0FFFFF80C
C0FFFFE01C
C0C000C07C
FFC00100F8
FFC00603F0
FFC00807C0
0000300F80
0000603E00
0001807C00
000301F000
000403E000
001807C000
00201F0000
00C03E0000
0180F80000
0601F00000
0C03C00FFC
100F800C0C
601E000C0C
C07C00080C
C0FFFFF00C
C00000003C
FFFFFFFFF8
FFFFFFFFF0
FFFFFFFFC0
ENDCHAR
STARTCHAR 007B
ENCODING 123
SWIDTH 638 0
DWIDTH 23 0
BBX 19 28 2 -1
BITMAP
0FFFE0
300060
403FE0
C0FFE0
C0FFE0
C0C000
C0C000
C0C000
C0C000
C0C000
C0C000
C0C000
C0C000
C0C000
C0C000
C0C000
C0C000
C0C000
C0C000
C0C000
C0C000
C0C000
C0C000
C07FE0
F00060
7FFFE0
7FFFE0
0FFFE0
ENDCHAR
STARTCHAR 007C
ENCODING 124
SWIDTH 222 0
DWIDTH 8 0
BBX 6 34 1 -7
BITMAP
FC
FC
CC
CC
CC
CC
CC
CC
CC
CC
CC
CC
CC
CC
CC
CC
CC
CC
CC
CC
CC
CC
CC
CC
CC
CC
CC
CC
CC
CC
CC
CC
FC
FC
ENDCHAR
STARTCHAR 007D
ENCODING 125
SWIDTH 638 0
DWIDTH 23 0
BBX 19 28 2 -1
BITMAP
FFFE00
C001C0
FFC040
FFF060
FFF060
003060
003060
003060
003060
003060
003060
003060
003060
003060
003060
003060
003060
003060
003060
003060
003060
003060
003060
FFC060
C000E0
FFFFC0
FFFF80
FFFE00
ENDCHAR
STARTCHAR 007E
ENCODING 126
SWIDTH 1805 0
DWIDTH 65 0
BBX 0 0 0 0
BITMAP
ENDCHAR
STARTCHAR 2018
ENCODING 8216
SWIDTH 361 0
DWIDTH 13 0
BBX 10 9 1 18
BITMAP
7F80
C0C0
C0C0
C0C0
E0C0
61C0
7F80
3F80
3F00
ENDCHAR
STARTCHAR 2019
ENCODING 8217
SWIDTH 361 0
DWIDTH 13 0
BBX 10 9 1 18
BITMAP
7F80
C0C0
C0C0
C0C0
E0C0
61C0
7F80
3F80
3F00
ENDCHAR
STARTCHAR 201B
ENCODING 8219
SWIDTH 361 0
DWIDTH 13 0
BBX 10 9 1 18
BITMAP
7F80
C0C0
C0C0
C0C0
E0C0
61C0
7F80
3F80
3F00
ENDCHAR
STARTCHAR 201C
ENCODING 8220
SWIDTH 694 0
DWIDTH 25 0
BBX 23 9 1 18
BITMAP
7F83FC
C0C606
C0C606
C0C606
E0C706
61C30E
7F83FC
3F81FC
3F01F8
ENDCHAR
STARTCHAR 201D
ENCODING 8221
SWIDTH 694 0
DWIDTH 25 0
BBX 23 9 1 18
BITMAP
7F83FC
C0C606
C0C606
C0C606
E0C706
61C30E
7F83FC
3F81FC
3F01F8
ENDCHAR
STARTCHAR 2026
ENCODING 8230
SWIDTH 1000 0
DWIDTH 36 0
BBX 33 6 1 -1
BITMAP
7F87F87F00
C0CC0CC180
C0CC0CC180
FFCFFCFF80
FFCFFCFF80
7F87F87F00
ENDCHAR
ENDFONT
